<mxfile host="Electron" agent="Mozilla/5.0 (Windows NT 10.0; Win64; x64) AppleWebKit/537.36 (KHTML, like Gecko) draw.io/24.7.17 Chrome/128.0.6613.36 Electron/32.0.1 Safari/537.36" version="24.7.17">
  <diagram name="Page-1" id="4H9oXmzPafto4ljivwnN">
    <mxGraphModel dx="1418" dy="820" grid="1" gridSize="10" guides="1" tooltips="1" connect="1" arrows="1" fold="1" page="1" pageScale="1" pageWidth="2339" pageHeight="3300" math="0" shadow="0">
      <root>
        <mxCell id="0" />
        <mxCell id="1" parent="0" />
        <mxCell id="gK7C5PrJW-nNvYNpwyFC-1" value="" style="shape=mxgraph.cisco.routers.router;sketch=0;html=1;pointerEvents=1;dashed=0;fillColor=#036897;strokeColor=#ffffff;strokeWidth=2;verticalLabelPosition=bottom;verticalAlign=top;align=center;outlineConnect=0;" vertex="1" parent="1">
          <mxGeometry x="848" y="470" width="78" height="53" as="geometry" />
        </mxCell>
        <mxCell id="gK7C5PrJW-nNvYNpwyFC-2" value="" style="shape=mxgraph.cisco.routers.router;sketch=0;html=1;pointerEvents=1;dashed=0;fillColor=#036897;strokeColor=#ffffff;strokeWidth=2;verticalLabelPosition=bottom;verticalAlign=top;align=center;outlineConnect=0;" vertex="1" parent="1">
          <mxGeometry x="849" y="600" width="78" height="53" as="geometry" />
        </mxCell>
        <mxCell id="gK7C5PrJW-nNvYNpwyFC-3" value="" style="shape=mxgraph.cisco.routers.router;sketch=0;html=1;pointerEvents=1;dashed=0;fillColor=#036897;strokeColor=#ffffff;strokeWidth=2;verticalLabelPosition=bottom;verticalAlign=top;align=center;outlineConnect=0;" vertex="1" parent="1">
          <mxGeometry x="849" y="700" width="78" height="53" as="geometry" />
        </mxCell>
        <mxCell id="gK7C5PrJW-nNvYNpwyFC-4" value="" style="endArrow=none;html=1;rounded=0;entryX=0;entryY=0.5;entryDx=0;entryDy=0;entryPerimeter=0;" edge="1" parent="1">
          <mxGeometry width="50" height="50" relative="1" as="geometry">
            <mxPoint x="715" y="493" as="sourcePoint" />
            <mxPoint x="845" y="493" as="targetPoint" />
          </mxGeometry>
        </mxCell>
        <mxCell id="gK7C5PrJW-nNvYNpwyFC-5" value="" style="endArrow=none;html=1;rounded=0;" edge="1" parent="1">
          <mxGeometry width="50" height="50" relative="1" as="geometry">
            <mxPoint x="720" y="1130" as="sourcePoint" />
            <mxPoint x="716.75" y="453" as="targetPoint" />
          </mxGeometry>
        </mxCell>
        <mxCell id="gK7C5PrJW-nNvYNpwyFC-6" value="Net 131.175.21.0" style="text;html=1;align=center;verticalAlign=middle;whiteSpace=wrap;rounded=0;" vertex="1" parent="1">
          <mxGeometry x="688" y="413" width="60" height="30" as="geometry" />
        </mxCell>
        <mxCell id="gK7C5PrJW-nNvYNpwyFC-7" value="131.175.21.1" style="text;html=1;align=center;verticalAlign=middle;whiteSpace=wrap;rounded=0;" vertex="1" parent="1">
          <mxGeometry x="778" y="493" width="60" height="30" as="geometry" />
        </mxCell>
        <mxCell id="gK7C5PrJW-nNvYNpwyFC-11" value="" style="endArrow=none;html=1;rounded=0;entryX=0;entryY=0.5;entryDx=0;entryDy=0;entryPerimeter=0;" edge="1" parent="1">
          <mxGeometry width="50" height="50" relative="1" as="geometry">
            <mxPoint x="719" y="630" as="sourcePoint" />
            <mxPoint x="849" y="630" as="targetPoint" />
          </mxGeometry>
        </mxCell>
        <mxCell id="gK7C5PrJW-nNvYNpwyFC-12" value="131.175.21.2" style="text;html=1;align=center;verticalAlign=middle;whiteSpace=wrap;rounded=0;" vertex="1" parent="1">
          <mxGeometry x="779" y="630" width="60" height="30" as="geometry" />
        </mxCell>
        <mxCell id="gK7C5PrJW-nNvYNpwyFC-13" value="" style="endArrow=none;html=1;rounded=0;entryX=0;entryY=0.5;entryDx=0;entryDy=0;entryPerimeter=0;" edge="1" parent="1">
          <mxGeometry width="50" height="50" relative="1" as="geometry">
            <mxPoint x="719" y="730" as="sourcePoint" />
            <mxPoint x="849" y="730" as="targetPoint" />
          </mxGeometry>
        </mxCell>
        <mxCell id="gK7C5PrJW-nNvYNpwyFC-14" value="131.175.21.3" style="text;html=1;align=center;verticalAlign=middle;whiteSpace=wrap;rounded=0;" vertex="1" parent="1">
          <mxGeometry x="779" y="730" width="60" height="30" as="geometry" />
        </mxCell>
        <mxCell id="gK7C5PrJW-nNvYNpwyFC-15" value="" style="endArrow=none;html=1;rounded=0;entryX=0;entryY=0.5;entryDx=0;entryDy=0;entryPerimeter=0;" edge="1" parent="1">
          <mxGeometry width="50" height="50" relative="1" as="geometry">
            <mxPoint x="719" y="870" as="sourcePoint" />
            <mxPoint x="849" y="870" as="targetPoint" />
          </mxGeometry>
        </mxCell>
        <mxCell id="gK7C5PrJW-nNvYNpwyFC-16" value="131.175.21.4" style="text;html=1;align=center;verticalAlign=middle;whiteSpace=wrap;rounded=0;" vertex="1" parent="1">
          <mxGeometry x="779" y="870" width="60" height="30" as="geometry" />
        </mxCell>
        <mxCell id="gK7C5PrJW-nNvYNpwyFC-17" value="" style="shape=mxgraph.cisco.routers.router;sketch=0;html=1;pointerEvents=1;dashed=0;fillColor=#036897;strokeColor=#ffffff;strokeWidth=2;verticalLabelPosition=bottom;verticalAlign=top;align=center;outlineConnect=0;" vertex="1" parent="1">
          <mxGeometry x="849" y="840" width="78" height="80" as="geometry" />
        </mxCell>
        <mxCell id="gK7C5PrJW-nNvYNpwyFC-18" value="" style="endArrow=none;html=1;rounded=0;entryX=0;entryY=0.5;entryDx=0;entryDy=0;entryPerimeter=0;" edge="1" parent="1">
          <mxGeometry width="50" height="50" relative="1" as="geometry">
            <mxPoint x="718" y="1000" as="sourcePoint" />
            <mxPoint x="848" y="1000" as="targetPoint" />
          </mxGeometry>
        </mxCell>
        <mxCell id="gK7C5PrJW-nNvYNpwyFC-19" value="131.175.21.5" style="text;html=1;align=center;verticalAlign=middle;whiteSpace=wrap;rounded=0;" vertex="1" parent="1">
          <mxGeometry x="778" y="1000" width="60" height="30" as="geometry" />
        </mxCell>
        <mxCell id="gK7C5PrJW-nNvYNpwyFC-20" value="" style="shape=mxgraph.cisco.routers.router;sketch=0;html=1;pointerEvents=1;dashed=0;fillColor=#036897;strokeColor=#ffffff;strokeWidth=2;verticalLabelPosition=bottom;verticalAlign=top;align=center;outlineConnect=0;" vertex="1" parent="1">
          <mxGeometry x="848" y="970" width="78" height="53" as="geometry" />
        </mxCell>
        <mxCell id="gK7C5PrJW-nNvYNpwyFC-21" value="Test&lt;div&gt;Router&lt;/div&gt;" style="shape=mxgraph.cisco.routers.router;sketch=0;html=1;pointerEvents=1;dashed=0;fillColor=#036897;strokeColor=#ffffff;strokeWidth=2;verticalLabelPosition=bottom;verticalAlign=top;align=center;outlineConnect=0;" vertex="1" parent="1">
          <mxGeometry x="510" y="540" width="78" height="53" as="geometry" />
        </mxCell>
        <mxCell id="gK7C5PrJW-nNvYNpwyFC-22" value="" style="endArrow=none;html=1;rounded=0;entryX=0;entryY=0.5;entryDx=0;entryDy=0;entryPerimeter=0;" edge="1" parent="1">
          <mxGeometry width="50" height="50" relative="1" as="geometry">
            <mxPoint x="390" y="570" as="sourcePoint" />
            <mxPoint x="510" y="570" as="targetPoint" />
          </mxGeometry>
        </mxCell>
        <mxCell id="gK7C5PrJW-nNvYNpwyFC-23" value="Interface 1&lt;div&gt;131.175.12.253&lt;/div&gt;" style="text;html=1;align=center;verticalAlign=middle;whiteSpace=wrap;rounded=0;" vertex="1" parent="1">
          <mxGeometry x="430" y="573.25" width="60" height="30" as="geometry" />
        </mxCell>
        <mxCell id="gK7C5PrJW-nNvYNpwyFC-24" value="" style="endArrow=none;html=1;rounded=0;entryX=0;entryY=0.5;entryDx=0;entryDy=0;entryPerimeter=0;" edge="1" parent="1">
          <mxGeometry width="50" height="50" relative="1" as="geometry">
            <mxPoint x="588" y="570" as="sourcePoint" />
            <mxPoint x="718" y="570" as="targetPoint" />
          </mxGeometry>
        </mxCell>
        <mxCell id="gK7C5PrJW-nNvYNpwyFC-25" value="Interface 2&lt;div&gt;131.175.21.254&lt;/div&gt;" style="text;html=1;align=center;verticalAlign=middle;whiteSpace=wrap;rounded=0;" vertex="1" parent="1">
          <mxGeometry x="600" y="573.25" width="60" height="30" as="geometry" />
        </mxCell>
        <mxCell id="gK7C5PrJW-nNvYNpwyFC-26" value="" style="endArrow=none;html=1;rounded=0;" edge="1" parent="1">
          <mxGeometry width="50" height="50" relative="1" as="geometry">
            <mxPoint x="922" y="493.75" as="sourcePoint" />
            <mxPoint x="982" y="493.75" as="targetPoint" />
          </mxGeometry>
        </mxCell>
        <mxCell id="gK7C5PrJW-nNvYNpwyFC-27" value="" style="endArrow=none;html=1;rounded=0;" edge="1" parent="1">
          <mxGeometry width="50" height="50" relative="1" as="geometry">
            <mxPoint x="982" y="503" as="sourcePoint" />
            <mxPoint x="982" y="449.75" as="targetPoint" />
          </mxGeometry>
        </mxCell>
        <mxCell id="gK7C5PrJW-nNvYNpwyFC-28" value="Net&amp;nbsp;&lt;div&gt;131.175.15.0&lt;/div&gt;" style="text;html=1;align=center;verticalAlign=middle;whiteSpace=wrap;rounded=0;" vertex="1" parent="1">
          <mxGeometry x="950" y="413" width="60" height="30" as="geometry" />
        </mxCell>
        <mxCell id="gK7C5PrJW-nNvYNpwyFC-29" value="" style="endArrow=none;html=1;rounded=0;" edge="1" parent="1">
          <mxGeometry width="50" height="50" relative="1" as="geometry">
            <mxPoint x="926" y="630.75" as="sourcePoint" />
            <mxPoint x="986" y="630.75" as="targetPoint" />
          </mxGeometry>
        </mxCell>
        <mxCell id="gK7C5PrJW-nNvYNpwyFC-30" value="" style="endArrow=none;html=1;rounded=0;" edge="1" parent="1">
          <mxGeometry width="50" height="50" relative="1" as="geometry">
            <mxPoint x="986" y="640" as="sourcePoint" />
            <mxPoint x="986" y="586.75" as="targetPoint" />
          </mxGeometry>
        </mxCell>
        <mxCell id="gK7C5PrJW-nNvYNpwyFC-31" value="Net&amp;nbsp;&lt;div&gt;131.175.16.0&lt;/div&gt;" style="text;html=1;align=center;verticalAlign=middle;whiteSpace=wrap;rounded=0;" vertex="1" parent="1">
          <mxGeometry x="954" y="550" width="60" height="30" as="geometry" />
        </mxCell>
        <mxCell id="gK7C5PrJW-nNvYNpwyFC-32" value="" style="endArrow=none;html=1;rounded=0;" edge="1" parent="1">
          <mxGeometry width="50" height="50" relative="1" as="geometry">
            <mxPoint x="926" y="730.75" as="sourcePoint" />
            <mxPoint x="986" y="730.75" as="targetPoint" />
          </mxGeometry>
        </mxCell>
        <mxCell id="gK7C5PrJW-nNvYNpwyFC-33" value="" style="endArrow=none;html=1;rounded=0;" edge="1" parent="1">
          <mxGeometry width="50" height="50" relative="1" as="geometry">
            <mxPoint x="986" y="740" as="sourcePoint" />
            <mxPoint x="986" y="686.75" as="targetPoint" />
          </mxGeometry>
        </mxCell>
        <mxCell id="gK7C5PrJW-nNvYNpwyFC-34" value="Net&amp;nbsp;&lt;div&gt;131.175.17.0&lt;/div&gt;" style="text;html=1;align=center;verticalAlign=middle;whiteSpace=wrap;rounded=0;" vertex="1" parent="1">
          <mxGeometry x="954" y="650" width="60" height="30" as="geometry" />
        </mxCell>
        <mxCell id="gK7C5PrJW-nNvYNpwyFC-35" value="" style="endArrow=none;html=1;rounded=0;" edge="1" parent="1">
          <mxGeometry width="50" height="50" relative="1" as="geometry">
            <mxPoint x="922" y="850" as="sourcePoint" />
            <mxPoint x="982" y="850" as="targetPoint" />
          </mxGeometry>
        </mxCell>
        <mxCell id="gK7C5PrJW-nNvYNpwyFC-36" value="" style="endArrow=none;html=1;rounded=0;" edge="1" parent="1">
          <mxGeometry width="50" height="50" relative="1" as="geometry">
            <mxPoint x="982" y="860" as="sourcePoint" />
            <mxPoint x="982" y="816.75" as="targetPoint" />
          </mxGeometry>
        </mxCell>
        <mxCell id="gK7C5PrJW-nNvYNpwyFC-37" value="Net&amp;nbsp;&lt;div&gt;131.180.23.0&lt;/div&gt;" style="text;html=1;align=center;verticalAlign=middle;whiteSpace=wrap;rounded=0;" vertex="1" parent="1">
          <mxGeometry x="950" y="780" width="60" height="30" as="geometry" />
        </mxCell>
        <mxCell id="gK7C5PrJW-nNvYNpwyFC-38" value="" style="endArrow=none;html=1;rounded=0;" edge="1" parent="1">
          <mxGeometry width="50" height="50" relative="1" as="geometry">
            <mxPoint x="920" y="880" as="sourcePoint" />
            <mxPoint x="1080" y="880" as="targetPoint" />
          </mxGeometry>
        </mxCell>
        <mxCell id="gK7C5PrJW-nNvYNpwyFC-39" value="" style="endArrow=none;html=1;rounded=0;" edge="1" parent="1">
          <mxGeometry width="50" height="50" relative="1" as="geometry">
            <mxPoint x="1080" y="890" as="sourcePoint" />
            <mxPoint x="1080" y="826.75" as="targetPoint" />
          </mxGeometry>
        </mxCell>
        <mxCell id="gK7C5PrJW-nNvYNpwyFC-40" value="Net&amp;nbsp;&lt;div&gt;131.180.18.0&lt;/div&gt;" style="text;html=1;align=center;verticalAlign=middle;whiteSpace=wrap;rounded=0;" vertex="1" parent="1">
          <mxGeometry x="1048" y="790" width="60" height="30" as="geometry" />
        </mxCell>
        <mxCell id="gK7C5PrJW-nNvYNpwyFC-41" value="" style="endArrow=none;html=1;rounded=0;exitX=0.88;exitY=0.9;exitDx=0;exitDy=0;exitPerimeter=0;" edge="1" parent="1" source="gK7C5PrJW-nNvYNpwyFC-17">
          <mxGeometry width="50" height="50" relative="1" as="geometry">
            <mxPoint x="1110" y="910.75" as="sourcePoint" />
            <mxPoint x="1170" y="910.75" as="targetPoint" />
          </mxGeometry>
        </mxCell>
        <mxCell id="gK7C5PrJW-nNvYNpwyFC-42" value="" style="endArrow=none;html=1;rounded=0;" edge="1" parent="1">
          <mxGeometry width="50" height="50" relative="1" as="geometry">
            <mxPoint x="1170" y="920" as="sourcePoint" />
            <mxPoint x="1170" y="866.75" as="targetPoint" />
          </mxGeometry>
        </mxCell>
        <mxCell id="gK7C5PrJW-nNvYNpwyFC-43" value="Net&amp;nbsp;&lt;div&gt;131.180.21.0&lt;/div&gt;" style="text;html=1;align=center;verticalAlign=middle;whiteSpace=wrap;rounded=0;" vertex="1" parent="1">
          <mxGeometry x="1138" y="830" width="60" height="30" as="geometry" />
        </mxCell>
        <mxCell id="gK7C5PrJW-nNvYNpwyFC-46" value="" style="endArrow=none;html=1;rounded=0;" edge="1" parent="1">
          <mxGeometry width="50" height="50" relative="1" as="geometry">
            <mxPoint x="926" y="1000" as="sourcePoint" />
            <mxPoint x="986" y="1000" as="targetPoint" />
          </mxGeometry>
        </mxCell>
        <mxCell id="gK7C5PrJW-nNvYNpwyFC-47" value="" style="endArrow=none;html=1;rounded=0;" edge="1" parent="1">
          <mxGeometry width="50" height="50" relative="1" as="geometry">
            <mxPoint x="986" y="1010" as="sourcePoint" />
            <mxPoint x="986" y="966.75" as="targetPoint" />
          </mxGeometry>
        </mxCell>
        <mxCell id="gK7C5PrJW-nNvYNpwyFC-48" value="Net&amp;nbsp;&lt;div&gt;131.180.0.0&lt;/div&gt;" style="text;html=1;align=center;verticalAlign=middle;whiteSpace=wrap;rounded=0;" vertex="1" parent="1">
          <mxGeometry x="954" y="930" width="60" height="30" as="geometry" />
        </mxCell>
        <mxCell id="gK7C5PrJW-nNvYNpwyFC-49" value="" style="shape=mxgraph.cisco.computers_and_peripherals.pc;sketch=0;html=1;pointerEvents=1;dashed=0;fillColor=#036897;strokeColor=#ffffff;strokeWidth=2;verticalLabelPosition=bottom;verticalAlign=top;align=center;outlineConnect=0;" vertex="1" parent="1">
          <mxGeometry x="862" y="1064" width="78" height="70" as="geometry" />
        </mxCell>
        <mxCell id="gK7C5PrJW-nNvYNpwyFC-50" value="" style="endArrow=none;html=1;rounded=0;" edge="1" parent="1" target="gK7C5PrJW-nNvYNpwyFC-49">
          <mxGeometry width="50" height="50" relative="1" as="geometry">
            <mxPoint x="719" y="1100" as="sourcePoint" />
            <mxPoint x="849" y="1100" as="targetPoint" />
          </mxGeometry>
        </mxCell>
        <mxCell id="gK7C5PrJW-nNvYNpwyFC-51" value="131.175.21.86" style="text;html=1;align=center;verticalAlign=middle;whiteSpace=wrap;rounded=0;" vertex="1" parent="1">
          <mxGeometry x="779" y="1100" width="60" height="30" as="geometry" />
        </mxCell>
        <mxCell id="gK7C5PrJW-nNvYNpwyFC-53" value="" style="shape=mxgraph.cisco.computers_and_peripherals.pc;sketch=0;html=1;pointerEvents=1;dashed=0;fillColor=#036897;strokeColor=#ffffff;strokeWidth=2;verticalLabelPosition=bottom;verticalAlign=top;align=center;outlineConnect=0;" vertex="1" parent="1">
          <mxGeometry x="1134" y="566" width="78" height="70" as="geometry" />
        </mxCell>
        <mxCell id="gK7C5PrJW-nNvYNpwyFC-54" value="" style="endArrow=none;html=1;rounded=0;" edge="1" parent="1" target="gK7C5PrJW-nNvYNpwyFC-53">
          <mxGeometry width="50" height="50" relative="1" as="geometry">
            <mxPoint x="990" y="600" as="sourcePoint" />
            <mxPoint x="1120" y="600" as="targetPoint" />
          </mxGeometry>
        </mxCell>
        <mxCell id="gK7C5PrJW-nNvYNpwyFC-55" value="131.175.16.65" style="text;html=1;align=center;verticalAlign=middle;whiteSpace=wrap;rounded=0;" vertex="1" parent="1">
          <mxGeometry x="1050" y="600" width="60" height="30" as="geometry" />
        </mxCell>
        <mxCell id="gK7C5PrJW-nNvYNpwyFC-56" value="" style="shape=mxgraph.cisco.computers_and_peripherals.pc;sketch=0;html=1;pointerEvents=1;dashed=0;fillColor=#036897;strokeColor=#ffffff;strokeWidth=2;verticalLabelPosition=bottom;verticalAlign=top;align=center;outlineConnect=0;" vertex="1" parent="1">
          <mxGeometry x="1313" y="850" width="78" height="70" as="geometry" />
        </mxCell>
        <mxCell id="gK7C5PrJW-nNvYNpwyFC-57" value="" style="endArrow=none;html=1;rounded=0;" edge="1" parent="1" target="gK7C5PrJW-nNvYNpwyFC-56">
          <mxGeometry width="50" height="50" relative="1" as="geometry">
            <mxPoint x="1170" y="886" as="sourcePoint" />
            <mxPoint x="1300" y="886" as="targetPoint" />
          </mxGeometry>
        </mxCell>
        <mxCell id="gK7C5PrJW-nNvYNpwyFC-58" value="131.185.21.78" style="text;html=1;align=center;verticalAlign=middle;whiteSpace=wrap;rounded=0;" vertex="1" parent="1">
          <mxGeometry x="1230" y="886" width="60" height="30" as="geometry" />
        </mxCell>
        <mxCell id="gK7C5PrJW-nNvYNpwyFC-59" value="&lt;div&gt;&lt;br&gt;&lt;/div&gt;&lt;div&gt;&lt;br&gt;&lt;/div&gt;&lt;div&gt;&lt;br&gt;&lt;/div&gt;&lt;div&gt;&lt;br&gt;&lt;/div&gt;&lt;div&gt;&lt;br&gt;&lt;/div&gt;&lt;div&gt;&lt;br&gt;&lt;/div&gt;&lt;div&gt;&lt;br&gt;&lt;/div&gt;&lt;div&gt;&lt;br&gt;&lt;/div&gt;&lt;div&gt;&lt;br&gt;&lt;/div&gt;&lt;div&gt;&lt;br&gt;&lt;/div&gt;Internet" style="ellipse;shape=cloud;whiteSpace=wrap;html=1;align=center;fillColor=none;verticalAlign=top;" vertex="1" parent="1">
          <mxGeometry x="100" y="510" width="200" height="156.5" as="geometry" />
        </mxCell>
        <mxCell id="gK7C5PrJW-nNvYNpwyFC-60" value="" style="shape=mxgraph.cisco.routers.router;sketch=0;html=1;pointerEvents=1;dashed=0;fillColor=#036897;strokeColor=#ffffff;strokeWidth=2;verticalLabelPosition=bottom;verticalAlign=top;align=center;outlineConnect=0;" vertex="1" parent="1">
          <mxGeometry x="252" y="568.5" width="78" height="53" as="geometry" />
        </mxCell>
        <mxCell id="gK7C5PrJW-nNvYNpwyFC-61" value="" style="endArrow=none;html=1;rounded=0;" edge="1" parent="1">
          <mxGeometry width="50" height="50" relative="1" as="geometry">
            <mxPoint x="330" y="590.75" as="sourcePoint" />
            <mxPoint x="390" y="590.75" as="targetPoint" />
          </mxGeometry>
        </mxCell>
        <mxCell id="gK7C5PrJW-nNvYNpwyFC-62" value="" style="endArrow=none;html=1;rounded=0;" edge="1" parent="1">
          <mxGeometry width="50" height="50" relative="1" as="geometry">
            <mxPoint x="390" y="600" as="sourcePoint" />
            <mxPoint x="390" y="546.75" as="targetPoint" />
          </mxGeometry>
        </mxCell>
        <mxCell id="gK7C5PrJW-nNvYNpwyFC-63" value="Net&amp;nbsp;&lt;div&gt;131.175.12.0&lt;/div&gt;" style="text;html=1;align=center;verticalAlign=middle;whiteSpace=wrap;rounded=0;" vertex="1" parent="1">
          <mxGeometry x="358" y="510" width="60" height="30" as="geometry" />
        </mxCell>
        <mxCell id="gK7C5PrJW-nNvYNpwyFC-67" value="&lt;div&gt;131.175.12.254&lt;/div&gt;" style="text;html=1;align=center;verticalAlign=middle;whiteSpace=wrap;rounded=0;" vertex="1" parent="1">
          <mxGeometry x="288" y="630" width="60" height="30" as="geometry" />
        </mxCell>
      </root>
    </mxGraphModel>
  </diagram>
</mxfile>
